<svg xmlns="http://www.w3.org/2000/svg" width="65.21" height="65.197" viewBox="0 0 65.21 65.197">
  <path id="Icon_awesome-syringe" data-name="Icon awesome-syringe" d="M25.663,22.262l7.093,7.106a1.022,1.022,0,0,1,0,1.439l-1.439,1.439a1.022,1.022,0,0,1-1.439,0L22.784,25.14l-5.769,5.769,7.106,7.106a1.022,1.022,0,0,1,0,1.439l-1.439,1.439a1.022,1.022,0,0,1-1.439,0l-7.106-7.119-3.362,3.362a10.175,10.175,0,0,0-2.929,8.329l.9,8.1L.294,62.021a1.022,1.022,0,0,0,0,1.439L1.733,64.9a1.022,1.022,0,0,0,1.439,0l8.443-8.443,8.1.9a10.138,10.138,0,0,0,8.329-2.929L51.209,31.266,33.928,13.985l-8.265,8.278Zm39.25-11.882L54.826.294a1.022,1.022,0,0,0-1.439,0L51.948,1.733a1.022,1.022,0,0,0,0,1.439l3.6,3.6-5.769,5.769L42.575,5.337,40.41,3.172a1.022,1.022,0,0,0-1.439,0L34.654,7.49a1.022,1.022,0,0,0,0,1.439l2.165,2.165L54.1,28.4l2.165,2.165a1.022,1.022,0,0,0,1.439,0l4.317-4.33a1.022,1.022,0,0,0,0-1.439l-9.36-9.36L58.43,9.667l3.6,3.6a1.022,1.022,0,0,0,1.439,0l1.439-1.439a1.038,1.038,0,0,0,0-1.452Z" transform="translate(0.002 0.002)" fill="#ffffff"/>
</svg>
